<svg width="50" height="50" viewBox="0 0 50 50" fill="none" xmlns="http://www.w3.org/2000/svg">
<path fill-rule="evenodd" clip-rule="evenodd" d="M24.4793 8.3334C27.3421 8.3334 29.6629 10.6354 29.6629 13.475V26.6137C32.4879 28.3401 34.3752 31.4374 34.3752 34.976C34.3752 40.3971 29.9446 44.7917 24.4793 44.7917C19.014 44.7917 14.5835 40.3971 14.5835 34.976C14.5835 31.4374 16.4708 28.3401 19.2958 26.6137V13.475C19.2958 10.6354 21.6165 8.3334 24.4793 8.3334ZM21.6519 28.041C18.8888 29.1504 16.9396 31.8375 16.9396 34.976C16.9396 39.1064 20.3153 42.4547 24.4793 42.4547C28.6434 42.4547 32.019 39.1064 32.019 34.976C32.019 31.8375 30.0698 29.1504 27.3067 28.041V13.475C27.3067 11.9261 26.0408 10.6705 24.4793 10.6705C22.9178 10.6705 21.6519 11.9261 21.6519 13.475V28.041Z" fill="#231815"/>
<path d="M30.7295 34.896C30.7295 38.3477 27.9313 41.146 24.4795 41.146C21.0277 41.146 18.2295 38.3477 18.2295 34.896C18.2295 31.4442 21.0277 28.646 24.4795 28.646C27.9313 28.646 30.7295 31.4442 30.7295 34.896Z" fill="#00A4EF"/>
<path d="M26.042 25.521C26.042 24.658 25.3424 23.9585 24.4795 23.9585C23.6165 23.9585 22.917 24.658 22.917 25.521V32.8126C22.917 33.6756 23.6165 34.3751 24.4795 34.3751C25.3424 34.3751 26.042 33.6756 26.042 32.8126V25.521Z" fill="#00A4EF"/>
</svg>
