<svg width="157" height="157" viewBox="0 0 157 157" fill="none" xmlns="http://www.w3.org/2000/svg">
<path fill-rule="evenodd" clip-rule="evenodd" d="M122.757 48.1638C122.757 48.1638 123.206 50.4485 123.36 50.4704C131.642 51.6518 137.856 56.484 137.856 65.0949C137.856 74.532 130.208 82.1823 120.773 82.1823H76.845C67.4102 82.1823 59.7618 74.532 59.7618 65.0949C59.7618 56.484 66.1295 49.3608 74.4118 48.1795C74.5653 48.1576 74.7156 48.1529 74.8615 48.1638C77.0619 36.9439 86.9472 28.479 98.8091 28.479C110.671 28.479 120.556 36.9439 122.757 48.1638Z" fill="#F3F3F3"/>
<path d="M78.137 82.1823C67.9887 82.1823 59.7618 74.1677 59.7618 64.2812C59.7618 55.6458 66.0383 48.4385 74.3894 46.7527C77.2603 36.2314 87.1054 28.479 98.8091 28.479C112.04 28.479 122.896 38.3866 123.985 51.0017C131.821 52.0496 137.856 58.5975 137.856 66.5188C137.856 75.1695 130.658 82.1823 121.778 82.1823H78.137Z" stroke="#231815" stroke-width="2" stroke-linecap="round" stroke-linejoin="round"/>
<path fill-rule="evenodd" clip-rule="evenodd" d="M100.025 68.5582C100.025 68.5582 100.624 71.6045 100.829 71.6336C111.872 73.2088 120.157 79.6518 120.157 91.1329C120.157 103.716 109.96 113.916 97.3799 113.916H38.8091C26.2294 113.916 16.0315 103.716 16.0315 91.1329C16.0315 79.6518 24.5218 70.1542 35.5648 68.5791C35.7694 68.5499 35.9699 68.5437 36.1644 68.5582C39.0983 53.5983 52.2786 42.3118 68.0945 42.3118C83.9103 42.3118 97.0907 53.5983 100.025 68.5582Z" fill="#F3F3F3"/>
<path d="M97.3799 113.916H98.7198C110.559 113.916 120.157 104.566 120.157 93.0315C120.157 82.4698 112.11 73.7392 101.662 72.3421C100.21 55.5219 85.7357 42.3118 68.0945 42.3118C52.4895 42.3118 39.3627 52.6483 35.5349 66.6767C24.4 68.9245 16.0315 78.5342 16.0315 90.048C16.0315 102.666 26.0817 112.997 38.8091 113.858" stroke="#231815" stroke-width="2" stroke-linecap="round" stroke-linejoin="round"/>
<path d="M48.5709 122.691L56.7058 108.598M64.8406 119.437L72.9755 105.343M77.8564 125.946L85.9912 111.853" stroke="#00A4EF" stroke-width="2" stroke-linecap="round" stroke-linejoin="round"/>
</svg>
