<svg width="407" height="400" viewBox="0 0 407 400" fill="none" xmlns="http://www.w3.org/2000/svg">
<path fill-rule="evenodd" clip-rule="evenodd" d="M343.75 141.667C343.75 179.636 312.97 210.417 275 210.417C237.031 210.417 206.25 179.636 206.25 141.667C206.25 103.697 237.031 72.9167 275 72.9167C312.97 72.9167 343.75 103.697 343.75 141.667Z" stroke="#231815" stroke-width="2"/>
<line x1="399" y1="136.417" x2="363.5" y2="136.417" stroke="#F25022" stroke-width="2" stroke-linecap="round" stroke-linejoin="round"/>
<line x1="186.5" y1="136.417" x2="151" y2="136.417" stroke="#F25022" stroke-width="2" stroke-linecap="round" stroke-linejoin="round"/>
<line x1="399" y1="136.417" x2="363.5" y2="136.417" stroke="#231815" stroke-width="2" stroke-linecap="round" stroke-linejoin="round"/>
<line x1="186.5" y1="136.417" x2="151" y2="136.417" stroke="#231815" stroke-width="2" stroke-linecap="round" stroke-linejoin="round"/>
<g clip-path="url(#clip0)">
<line x1="385.012" y1="199.12" x2="354.268" y2="181.37" stroke="#231815" stroke-width="2" stroke-linecap="round" stroke-linejoin="round"/>
</g>
<g clip-path="url(#clip1)">
<line x1="341.547" y1="246.429" x2="323.797" y2="215.685" stroke="#231815" stroke-width="2" stroke-linecap="round" stroke-linejoin="round"/>
</g>
<g clip-path="url(#clip2)">
<line x1="235.297" y1="62.3981" x2="217.547" y2="31.6542" stroke="#231815" stroke-width="2" stroke-linecap="round" stroke-linejoin="round"/>
</g>
<g clip-path="url(#clip3)">
<line x1="280.25" y1="265.666" x2="280.25" y2="230.166" stroke="#231815" stroke-width="2" stroke-linecap="round" stroke-linejoin="round"/>
</g>
<g clip-path="url(#clip4)">
<line x1="280.25" y1="53.1666" x2="280.25" y2="17.6666" stroke="#231815" stroke-width="2" stroke-linecap="round" stroke-linejoin="round"/>
</g>
<g clip-path="url(#clip5)">
<line x1="217.547" y1="251.679" x2="235.297" y2="220.935" stroke="#231815" stroke-width="2" stroke-linecap="round" stroke-linejoin="round"/>
</g>
<g clip-path="url(#clip6)">
<line x1="323.797" y1="67.6483" x2="341.547" y2="36.9044" stroke="#231815" stroke-width="2" stroke-linecap="round" stroke-linejoin="round"/>
</g>
<g clip-path="url(#clip7)">
<line x1="170.238" y1="208.213" x2="200.982" y2="190.463" stroke="#231815" stroke-width="2" stroke-linecap="round" stroke-linejoin="round"/>
</g>
<g clip-path="url(#clip8)">
<line x1="354.268" y1="101.963" x2="385.012" y2="84.2132" stroke="#231815" stroke-width="2" stroke-linecap="round" stroke-linejoin="round"/>
</g>
<path d="M337.5 141.667C337.5 176.185 309.518 204.167 275 204.167C240.482 204.167 212.5 176.185 212.5 141.667C212.5 107.149 240.482 79.1668 275 79.1668C309.518 79.1668 337.5 107.149 337.5 141.667Z" fill="#FFB900"/>
<path fill-rule="evenodd" clip-rule="evenodd" d="M186.33 123.317C186.33 123.317 187.481 129.167 187.874 129.223C209.085 132.247 225 144.62 225 166.667C225 190.829 205.412 210.417 181.25 210.417H68.75C44.5876 210.417 25.0001 190.829 25.0001 166.667C25.0001 144.62 41.3077 126.382 62.5186 123.357C62.9116 123.301 63.2967 123.289 63.6704 123.317C69.3055 94.5898 94.6218 72.9167 125 72.9167C155.378 72.9167 180.695 94.5898 186.33 123.317Z" fill="#F3F3F3"/>
<path d="M72.0589 210.417C46.069 210.417 25.0001 189.896 25.0001 164.583C25.0001 142.474 41.074 124.02 62.4612 119.704C69.8136 92.7657 95.0268 72.9167 125 72.9167C158.884 72.9167 186.686 98.2837 189.476 130.583C209.542 133.266 225 150.031 225 170.312C225 192.461 206.565 210.417 183.824 210.417H72.0589Z" stroke="#231815" stroke-width="2" stroke-linecap="round" stroke-linejoin="round"/>
<path fill-rule="evenodd" clip-rule="evenodd" d="M281.773 175.534C281.773 175.534 283.309 183.334 283.833 183.408C312.114 187.441 333.333 203.938 333.333 233.334C333.333 265.55 307.217 291.667 275 291.667H125C92.7833 291.667 66.6666 265.55 66.6666 233.334C66.6666 203.938 88.4102 179.62 116.691 175.587C117.215 175.513 117.729 175.497 118.227 175.534C125.741 137.231 159.496 108.333 200 108.333C240.504 108.333 274.259 137.231 281.773 175.534Z" fill="#F3F3F3"/>
<path d="M275 291.667H278.431C308.753 291.667 333.333 267.727 333.333 238.195C333.333 211.153 312.723 188.799 285.967 185.222C282.247 142.156 245.179 108.333 200 108.333C160.036 108.333 126.418 134.799 116.615 170.717C88.0985 176.472 66.6666 201.076 66.6666 230.556C66.6666 262.862 92.4053 289.313 125 291.518" stroke="#231815" stroke-width="2" stroke-linecap="round" stroke-linejoin="round"/>
<path d="M150 314.135L170.833 278.05M191.667 305.802L212.5 269.717M225 322.468L245.833 286.384" stroke="#2F80ED" stroke-width="2" stroke-linecap="round" stroke-linejoin="round"/>
<defs>
<clipPath id="clip0">
<rect x="351.615" y="171.466" width="50" height="25" rx="6" transform="rotate(30 351.615 171.466)" fill="white"/>
</clipPath>
<clipPath id="clip1">
<rect x="326.451" y="205.781" width="50" height="25" rx="6" transform="rotate(60 326.451 205.781)" fill="white"/>
</clipPath>
<clipPath id="clip2">
<rect x="220.201" y="21.7507" width="50" height="25" rx="6" transform="rotate(60 220.201 21.7507)" fill="white"/>
</clipPath>
<clipPath id="clip3">
<rect x="287.5" y="222.916" width="50" height="25" rx="6" transform="rotate(90 287.5 222.916)" fill="white"/>
</clipPath>
<clipPath id="clip4">
<rect x="287.5" y="10.4166" width="50" height="25" rx="6" transform="rotate(90 287.5 10.4166)" fill="white"/>
</clipPath>
<clipPath id="clip5">
<rect x="245.2" y="218.281" width="50" height="25" rx="6" transform="rotate(120 245.2 218.281)" fill="white"/>
</clipPath>
<clipPath id="clip6">
<rect x="351.451" y="34.2507" width="50" height="25" rx="6" transform="rotate(120 351.451 34.2507)" fill="white"/>
</clipPath>
<clipPath id="clip7">
<rect x="210.886" y="193.117" width="50" height="25" rx="6" transform="rotate(150 210.886 193.117)" fill="white"/>
</clipPath>
<clipPath id="clip8">
<rect x="394.916" y="86.8669" width="50" height="25" rx="6" transform="rotate(150 394.916 86.8669)" fill="white"/>
</clipPath>
</defs>
</svg>
