<svg width="157" height="157" viewBox="0 0 157 157" fill="none" xmlns="http://www.w3.org/2000/svg">
<path fill-rule="evenodd" clip-rule="evenodd" d="M110.025 68.5582C110.025 68.5582 110.624 71.6045 110.829 71.6336C121.872 73.2088 130.157 79.6518 130.157 91.1329C130.157 103.716 119.96 113.916 107.38 113.916H48.809C36.2294 113.916 26.0315 103.716 26.0315 91.1329C26.0315 79.6518 34.5218 70.1542 45.5648 68.5791C45.7694 68.5499 45.9699 68.5437 46.1644 68.5582C49.0983 53.5983 62.2786 42.3118 78.0945 42.3118C93.9103 42.3118 107.091 53.5983 110.025 68.5582Z" fill="#F3F3F3"/>
<path d="M107.38 113.916H108.72C120.559 113.916 130.157 104.566 130.157 93.0315C130.157 82.4698 122.11 73.7392 111.662 72.3421C110.21 55.5219 95.7357 42.3118 78.0945 42.3118C62.4895 42.3118 49.3627 52.6483 45.5349 66.6767C34.4 68.9245 26.0315 78.5342 26.0315 90.048C26.0315 102.666 36.0817 112.997 48.8091 113.858" stroke="#231815" stroke-width="2" stroke-linecap="round" stroke-linejoin="round"/>
<path d="M68.3327 112.289C68.3327 114.985 66.1475 117.171 63.4518 117.171C60.7562 117.171 58.5709 114.985 58.5709 112.289C58.5709 109.592 60.7562 107.407 63.4518 107.407C66.1475 107.407 68.3327 109.592 68.3327 112.289Z" fill="#231815"/>
<path d="M82.9754 118.798C82.9754 121.494 80.7902 123.68 78.0945 123.68C75.3989 123.68 73.2136 121.494 73.2136 118.798C73.2136 116.102 75.3989 113.916 78.0945 113.916C80.7902 113.916 82.9754 116.102 82.9754 118.798Z" fill="#231815"/>
<path d="M82.9754 102.524C82.9754 105.221 80.7902 107.407 78.0945 107.407C75.3989 107.407 73.2136 105.221 73.2136 102.524C73.2136 99.8281 75.3989 97.6423 78.0945 97.6423C80.7902 97.6423 82.9754 99.8281 82.9754 102.524Z" fill="#231815"/>
<path d="M97.6182 112.289C97.6182 114.985 95.4329 117.171 92.7373 117.171C90.0416 117.171 87.8564 114.985 87.8564 112.289C87.8564 109.592 90.0416 107.407 92.7373 107.407C95.4329 107.407 97.6182 109.592 97.6182 112.289Z" fill="#231815"/>
<path d="M68.3327 125.308C68.3327 128.004 66.1475 130.19 63.4518 130.19C60.7562 130.19 58.5709 128.004 58.5709 125.308C58.5709 122.611 60.7562 120.426 63.4518 120.426C66.1475 120.426 68.3327 122.611 68.3327 125.308Z" fill="#231815"/>
<path d="M97.6182 125.308C97.6182 128.004 95.4329 130.19 92.7373 130.19C90.0416 130.19 87.8564 128.004 87.8564 125.308C87.8564 122.611 90.0416 120.426 92.7373 120.426C95.4329 120.426 97.6182 122.611 97.6182 125.308Z" fill="#231815"/>
</svg>
