<svg width="157" height="157" viewBox="0 0 157 157" fill="none" xmlns="http://www.w3.org/2000/svg">
<path fill-rule="evenodd" clip-rule="evenodd" d="M110.721 68.5582C110.721 68.5582 111.321 71.6045 111.526 71.6336C122.569 73.2088 130.854 79.6518 130.854 91.1329C130.854 103.716 120.657 113.916 108.077 113.916H49.506C36.9263 113.916 26.7284 103.716 26.7284 91.1329C26.7284 79.6518 35.2187 70.1542 46.2617 68.5791C46.4663 68.5499 46.6668 68.5437 46.8613 68.5582C49.7952 53.5983 62.9755 42.3118 78.7914 42.3118C94.6072 42.3118 107.788 53.5983 110.721 68.5582Z" fill="#F3F3F3"/>
<path d="M108.077 113.916H109.417C121.256 113.916 130.854 104.566 130.854 93.0315C130.854 82.4698 122.807 73.7392 112.359 72.3421C110.907 55.5219 96.4326 42.3118 78.7914 42.3118C63.1864 42.3118 50.0596 52.6483 46.2318 66.6767C35.0969 68.9245 26.7284 78.5342 26.7284 90.048C26.7284 102.666 36.7786 112.997 49.506 113.858" stroke="#231815" stroke-width="2" stroke-linecap="round" stroke-linejoin="round"/>
<path fill-rule="evenodd" clip-rule="evenodd" d="M91.8072 91.1328C86.4159 91.1328 82.0453 95.5044 82.0453 100.897V101.785C82.0453 103.582 83.5022 105.039 85.2993 105.039C87.0964 105.039 88.5532 103.582 88.5532 101.785V100.897C88.5532 99.0995 90.0101 97.6423 91.8072 97.6423C93.6043 97.6423 95.0611 99.0995 95.0611 100.897V102.524C95.0611 105.221 92.8758 107.407 90.1802 107.407H86.9263C85.1292 107.407 83.6723 108.864 83.6723 110.661C83.6723 112.459 85.1292 113.916 86.9263 113.916H90.1802C96.47 113.916 101.569 108.816 101.569 102.524V100.897C101.569 95.5044 97.1985 91.1328 91.8072 91.1328ZM93.4341 143.209C87.1443 143.209 82.0453 138.109 82.0453 131.817V130.19C82.0453 128.392 83.5022 126.935 85.2993 126.935C87.0964 126.935 88.5532 128.392 88.5532 130.19V131.817C88.5532 134.513 90.7385 136.699 93.4341 136.699C96.1298 136.699 98.315 134.513 98.315 131.817V130.19C98.315 126.595 95.4014 123.68 91.8072 123.68H78.7914C76.9943 123.68 75.5375 122.223 75.5375 120.426C75.5375 118.628 76.9943 117.171 78.7914 117.171H91.8072C98.9956 117.171 104.823 123 104.823 130.19V131.817C104.823 138.109 99.724 143.209 93.4341 143.209Z" fill="#231815"/>
<path d="M81.983 108.016C81.8488 107.627 81.5162 107.345 81.1204 107.287L69.0123 105.492L74.5669 92.701C74.7153 92.3568 74.6858 91.9574 74.4862 91.6402C74.2877 91.3241 73.9464 91.1328 73.5812 91.1328H56.6719C56.0907 91.1328 55.6142 91.6075 55.5936 92.206L54.815 114.936C54.7953 115.504 55.1944 115.996 55.7397 116.077L64.1577 117.327L52.8947 138.303C52.6308 138.796 52.7649 139.414 53.2077 139.745C53.3985 139.887 53.6187 139.954 53.8389 139.954C54.1311 139.954 54.4212 139.831 54.6327 139.594L81.7615 109.142C82.0319 108.838 82.117 108.405 81.983 108.016Z" fill="#FFB900"/>
</svg>
