<svg width="157" height="157" viewBox="0 0 157 157" fill="none" xmlns="http://www.w3.org/2000/svg">
<path fill-rule="evenodd" clip-rule="evenodd" d="M72.7565 48.1638C72.7565 48.1638 73.2062 50.4485 73.3597 50.4704C81.642 51.6518 87.8562 56.484 87.8562 65.0949C87.8562 74.532 80.2078 82.1823 70.773 82.1823H26.8449C17.4101 82.1823 9.76172 74.532 9.76172 65.0949C9.76172 56.484 16.1294 49.3608 24.4117 48.1795C24.5651 48.1576 24.7155 48.1529 24.8614 48.1638C27.0618 36.9439 36.9471 28.479 48.809 28.479C60.6708 28.479 70.5561 36.9439 72.7565 48.1638Z" fill="#F3F3F3"/>
<path d="M28.1369 82.1823C17.9886 82.1823 9.76172 74.1677 9.76172 64.2812C9.76172 55.6458 16.0381 48.4385 24.3892 46.7527C27.2602 36.2314 37.1052 28.479 48.809 28.479C62.0399 28.479 72.8954 38.3866 73.9849 51.0017C81.8204 52.0496 87.8562 58.5975 87.8562 66.5188C87.8562 75.1695 80.6577 82.1823 71.7779 82.1823H28.1369Z" stroke="#231815" stroke-width="2" stroke-linecap="round" stroke-linejoin="round"/>
<path fill-rule="evenodd" clip-rule="evenodd" d="M110.025 68.5582C110.025 68.5582 110.624 71.6045 110.829 71.6336C121.872 73.2088 130.157 79.6518 130.157 91.1329C130.157 103.716 119.96 113.916 107.38 113.916H48.809C36.2294 113.916 26.0315 103.716 26.0315 91.1329C26.0315 79.6518 34.5218 70.1542 45.5648 68.5791C45.7694 68.5499 45.9699 68.5437 46.1644 68.5582C49.0983 53.5983 62.2786 42.3118 78.0945 42.3118C93.9103 42.3118 107.091 53.5983 110.025 68.5582Z" fill="#F3F3F3"/>
<path d="M50.5317 113.916C37.0006 113.916 26.0315 103.23 26.0315 90.048C26.0315 78.5341 34.4 68.9245 45.5349 66.6767C49.3627 52.6483 62.4895 42.3118 78.0945 42.3118C95.7357 42.3118 110.21 55.5219 111.662 72.3421C122.11 73.7392 130.157 82.4698 130.157 93.0315C130.157 104.566 120.559 113.916 108.72 113.916H50.5317Z" stroke="#231815" stroke-width="2" stroke-linecap="round" stroke-linejoin="round"/>
</svg>
