<svg width="157" height="157" viewBox="0 0 157 157" fill="none" xmlns="http://www.w3.org/2000/svg">
<path fill-rule="evenodd" clip-rule="evenodd" d="M110.025 68.5582C110.025 68.5582 110.624 71.6045 110.829 71.6336C121.872 73.2088 130.157 79.6518 130.157 91.1329C130.157 103.716 119.96 113.916 107.38 113.916H48.809C36.2294 113.916 26.0315 103.716 26.0315 91.1329C26.0315 79.6518 34.5218 70.1542 45.5648 68.5791C45.7694 68.5499 45.9699 68.5437 46.1644 68.5582C49.0983 53.5983 62.2786 42.3118 78.0945 42.3118C93.9103 42.3118 107.091 53.5983 110.025 68.5582Z" fill="#F3F3F3"/>
<path d="M107.38 113.916H108.72C120.559 113.916 130.157 104.566 130.157 93.0315C130.157 82.4698 122.11 73.7392 111.662 72.3421C110.21 55.5219 95.7357 42.3118 78.0945 42.3118C62.4895 42.3118 49.3627 52.6483 45.5349 66.6767C34.4 68.9245 26.0315 78.5342 26.0315 90.048C26.0315 102.666 36.0817 112.997 48.8091 113.858" stroke="#231815" stroke-width="2" stroke-linecap="round" stroke-linejoin="round"/>
<path fill-rule="evenodd" clip-rule="evenodd" d="M84.1666 117.755C82.6103 116.856 82.1984 114.655 83.2467 112.839L90.8393 99.6849C91.8876 97.8687 93.999 97.125 95.5554 98.0238C97.1117 98.9226 97.5235 101.123 96.4752 102.94L88.8827 116.094C87.8344 117.91 85.7229 118.653 84.1666 117.755Z" fill="#00A4EF"/>
<path fill-rule="evenodd" clip-rule="evenodd" d="M87.4205 134.028C85.8642 133.13 85.4524 130.929 86.5007 129.112L94.0932 115.959C95.1415 114.142 97.253 113.399 98.8093 114.298C100.366 115.196 100.777 117.397 99.7292 119.213L92.1367 132.367C91.0883 134.183 88.9769 134.927 87.4205 134.028Z" fill="#00A4EF"/>
<path d="M65.9688 105.754C65.9688 104.181 67.2435 102.906 68.816 102.906C70.3884 102.906 71.6632 104.181 71.6632 105.754V109.365L74.7896 107.559C76.1514 106.773 77.8927 107.24 78.6789 108.602C79.4652 109.964 78.9986 111.706 77.6368 112.492L74.5103 114.298L77.6368 116.103C78.9986 116.889 79.4651 118.631 78.6789 119.993C77.8927 121.355 76.1514 121.822 74.7896 121.036L71.6632 119.23V122.841C71.6632 124.414 70.3884 125.689 68.816 125.689C67.2435 125.689 65.9688 124.414 65.9688 122.841V119.23L62.8423 121.036C61.4805 121.822 59.7392 121.355 58.953 119.993C58.1668 118.631 58.6333 116.889 59.9951 116.103L63.1215 114.298L59.9951 112.492C58.6333 111.706 58.1667 109.964 58.953 108.602C59.7392 107.24 61.4805 106.773 62.8423 107.559L65.9688 109.365V105.754Z" fill="#00A4EF"/>
</svg>
