<svg width="157" height="157" viewBox="0 0 157 157" fill="none" xmlns="http://www.w3.org/2000/svg">
<path fill-rule="evenodd" clip-rule="evenodd" d="M110.025 68.5582C110.025 68.5582 110.624 71.6045 110.829 71.6336C121.872 73.2088 130.157 79.6518 130.157 91.1329C130.157 103.716 119.96 113.916 107.38 113.916H48.809C36.2294 113.916 26.0315 103.716 26.0315 91.1329C26.0315 79.6518 34.5218 70.1542 45.5648 68.5791C45.7694 68.5499 45.9699 68.5437 46.1644 68.5582C49.0983 53.5983 62.2786 42.3118 78.0945 42.3118C93.9103 42.3118 107.091 53.5983 110.025 68.5582Z" fill="#F3F3F3"/>
<path d="M107.38 113.916H108.72C120.559 113.916 130.157 104.566 130.157 93.0315C130.157 82.4698 122.11 73.7392 111.662 72.3421C110.21 55.5219 95.7357 42.3118 78.0945 42.3118C62.4895 42.3118 49.3627 52.6483 45.5349 66.6767C34.4 68.9245 26.0315 78.5342 26.0315 90.048C26.0315 102.666 36.0817 112.997 48.8091 113.858" stroke="#231815" stroke-width="2" stroke-linecap="round" stroke-linejoin="round"/>
<path d="M62.7146 93.9807C62.7146 92.4079 63.9894 91.1328 65.5618 91.1328C67.1343 91.1328 68.409 92.4079 68.409 93.9807V97.5917L71.5354 95.7862C72.8972 94.9998 74.6385 95.4665 75.4248 96.8286C76.211 98.1907 75.7444 99.9325 74.3826 100.719L71.2562 102.524L74.3826 104.33C75.7444 105.116 76.211 106.858 75.4248 108.22C74.6385 109.582 72.8972 110.049 71.5354 109.263L68.409 107.457V111.068C68.409 112.641 67.1343 113.916 65.5618 113.916C63.9894 113.916 62.7146 112.641 62.7146 111.068V107.457L59.5882 109.263C58.2264 110.049 56.4851 109.582 55.6988 108.22C54.9126 106.858 55.3792 105.116 56.741 104.33L59.8674 102.524L56.741 100.719C55.3792 99.9325 54.9126 98.1907 55.6988 96.8286C56.4851 95.4665 58.2264 94.9998 59.5882 95.7862L62.7146 97.5917V93.9807Z" fill="#00A4EF"/>
<path d="M88.7461 100.49C88.7461 98.9173 90.0209 97.6423 91.5933 97.6423C93.1658 97.6423 94.4405 98.9173 94.4405 100.49V104.101L97.5669 102.296C98.9287 101.509 100.67 101.976 101.456 103.338C102.243 104.7 101.776 106.442 100.414 107.228L97.2877 109.034L100.414 110.839C101.776 111.626 102.242 113.368 101.456 114.73C100.67 116.092 98.9287 116.559 97.5669 115.772L94.4405 113.967V117.578C94.4405 119.15 93.1658 120.426 91.5933 120.426C90.0209 120.426 88.7461 119.15 88.7461 117.578V113.967L85.6197 115.772C84.2579 116.559 82.5166 116.092 81.7303 114.73C80.9441 113.368 81.4107 111.626 82.7725 110.839L85.8989 109.034L82.7725 107.228C81.4107 106.442 80.9441 104.7 81.7303 103.338C82.5165 101.976 84.2579 101.509 85.6197 102.296L88.7461 104.101V100.49Z" fill="#00A4EF"/>
<path d="M69.2225 118.391C69.2225 116.818 70.4972 115.543 72.0697 115.543C73.6422 115.543 74.9169 116.818 74.9169 118.391V122.002L78.0433 120.197C79.4051 119.41 81.1464 119.877 81.9327 121.239C82.7189 122.601 82.2523 124.343 80.8905 125.129L77.764 126.935L80.8905 128.74C82.2523 129.527 82.7189 131.269 81.9326 132.631C81.1464 133.993 79.4051 134.46 78.0433 133.673L74.9169 131.868V135.479C74.9169 137.052 73.6422 138.327 72.0697 138.327C70.4972 138.327 69.2225 137.052 69.2225 135.479V131.868L66.096 133.673C64.7343 134.46 62.9929 133.993 62.2067 132.631C61.4205 131.269 61.8871 129.527 63.2489 128.74L66.3753 126.935L63.2488 125.13C61.887 124.343 61.4205 122.601 62.2067 121.239C62.9929 119.877 64.7342 119.41 66.096 120.197L69.2225 122.002V118.391Z" fill="#00A4EF"/>
</svg>
