<svg width="157" height="157" viewBox="0 0 157 157" fill="none" xmlns="http://www.w3.org/2000/svg">
<path fill-rule="evenodd" clip-rule="evenodd" d="M110.025 68.5582C110.025 68.5582 110.624 71.6045 110.829 71.6336C121.872 73.2088 130.157 79.6518 130.157 91.1329C130.157 103.716 119.96 113.916 107.38 113.916H48.809C36.2294 113.916 26.0315 103.716 26.0315 91.1329C26.0315 79.6518 34.5218 70.1542 45.5648 68.5791C45.7694 68.5499 45.9699 68.5437 46.1644 68.5582C49.0983 53.5983 62.2786 42.3118 78.0945 42.3118C93.9103 42.3118 107.091 53.5983 110.025 68.5582Z" fill="#F3F3F3"/>
<path d="M107.38 113.916H108.72C120.559 113.916 130.157 104.566 130.157 93.0315C130.157 82.4698 122.11 73.7392 111.662 72.3421C110.21 55.5219 95.7357 42.3118 78.0945 42.3118C62.4895 42.3118 49.3627 52.6483 45.5349 66.6767C34.4 68.9245 26.0315 78.5342 26.0315 90.048C26.0315 102.666 36.0817 112.997 48.8091 113.858" stroke="#231815" stroke-width="2" stroke-linecap="round" stroke-linejoin="round"/>
<path fill-rule="evenodd" clip-rule="evenodd" d="M75.7305 106.999C75.7305 105.427 77.0053 104.152 78.5777 104.152C80.1502 104.152 81.4249 105.427 81.4249 106.999V110.611L84.551 108.805C85.913 108.019 87.6544 108.486 88.4406 109.848C89.2269 111.21 88.7601 112.952 87.3982 113.738L84.272 115.543L87.3981 117.349C88.7601 118.135 89.2268 119.877 88.4406 121.239C87.6544 122.601 85.9129 123.068 84.5509 122.282L81.4249 120.476V124.088C81.4249 125.66 80.1502 126.935 78.5777 126.935C77.0053 126.935 75.7305 125.66 75.7305 124.088V120.476L72.6043 122.281C71.2424 123.068 69.5009 122.601 68.7147 121.239C67.9285 119.877 68.3952 118.135 69.7571 117.349L72.8832 115.543L69.7571 113.738C68.3951 112.952 67.9284 111.21 68.7147 109.848C69.5009 108.486 71.2423 108.019 72.6043 108.805L75.7305 110.611V106.999Z" fill="#00A4EF"/>
</svg>
