<svg width="157" height="157" viewBox="0 0 157 157" fill="none" xmlns="http://www.w3.org/2000/svg">
<path fill-rule="evenodd" clip-rule="evenodd" d="M114.585 78.1139C114.585 97.8869 98.5596 113.916 78.7915 113.916C59.0234 113.916 42.9982 97.8869 42.9982 78.1139C42.9982 58.3409 59.0234 42.3118 78.7915 42.3118C98.5596 42.3118 114.585 58.3409 114.585 78.1139Z" stroke="#231815" stroke-width="2"/>
<line x1="142.87" y1="75.8591" x2="125.347" y2="75.8591" stroke="#F25022" stroke-width="2" stroke-linecap="round" stroke-linejoin="round"/>
<line x1="32.2363" y1="75.8591" x2="14.7127" y2="75.8591" stroke="#F25022" stroke-width="2" stroke-linecap="round" stroke-linejoin="round"/>
<line x1="142.87" y1="75.8591" x2="125.347" y2="75.8591" stroke="#231815" stroke-width="2" stroke-linecap="round" stroke-linejoin="round"/>
<line x1="32.2363" y1="75.8591" x2="14.7127" y2="75.8591" stroke="#231815" stroke-width="2" stroke-linecap="round" stroke-linejoin="round"/>
<g clip-path="url(#clip0)">
<line x1="1" y1="-1" x2="18.5248" y2="-1" transform="matrix(-0.865972 -0.500093 0.499907 -0.866079 136.778 107.843)" stroke="#231815" stroke-width="2" stroke-linecap="round" stroke-linejoin="round"/>
</g>
<g clip-path="url(#clip1)">
<line x1="1" y1="-1" x2="18.5248" y2="-1" transform="matrix(-0.865972 -0.500093 0.499907 -0.866079 40.9664 52.512)" stroke="#231815" stroke-width="2" stroke-linecap="round" stroke-linejoin="round"/>
</g>
<g clip-path="url(#clip2)">
<line x1="1" y1="-1" x2="18.5272" y2="-1" transform="matrix(-0.499907 -0.866079 0.865972 -0.500093 114.149 132.86)" stroke="#231815" stroke-width="2" stroke-linecap="round" stroke-linejoin="round"/>
</g>
<g clip-path="url(#clip3)">
<line x1="1" y1="-1" x2="18.5272" y2="-1" transform="matrix(-0.499907 -0.866079 0.865972 -0.500093 58.8319 37.0249)" stroke="#231815" stroke-width="2" stroke-linecap="round" stroke-linejoin="round"/>
</g>
<g clip-path="url(#clip4)">
<line x1="81.0454" y1="142.209" x2="81.0454" y2="124.681" stroke="#231815" stroke-width="2" stroke-linecap="round" stroke-linejoin="round"/>
</g>
<g clip-path="url(#clip5)">
<line x1="81.0454" y1="31.5476" x2="81.0454" y2="14.0191" stroke="#231815" stroke-width="2" stroke-linecap="round" stroke-linejoin="round"/>
</g>
<g clip-path="url(#clip6)">
<line x1="1" y1="-1" x2="18.5272" y2="-1" transform="matrix(0.499907 -0.866079 0.865972 0.500093 49.0701 136.115)" stroke="#231815" stroke-width="2" stroke-linecap="round" stroke-linejoin="round"/>
</g>
<g clip-path="url(#clip7)">
<line x1="1" y1="-1" x2="18.5273" y2="-1" transform="matrix(0.499907 -0.866079 0.865972 0.500093 104.387 40.2798)" stroke="#231815" stroke-width="2" stroke-linecap="round" stroke-linejoin="round"/>
</g>
<g clip-path="url(#clip8)">
<line x1="1" y1="-1" x2="18.5248" y2="-1" transform="matrix(0.865972 -0.500093 0.499907 0.866079 24.0587 113.48)" stroke="#231815" stroke-width="2" stroke-linecap="round" stroke-linejoin="round"/>
</g>
<g clip-path="url(#clip9)">
<line x1="1" y1="-1" x2="18.5248" y2="-1" transform="matrix(0.865972 -0.500093 0.499907 0.866079 119.87 58.1497)" stroke="#231815" stroke-width="2" stroke-linecap="round" stroke-linejoin="round"/>
</g>
<path d="M111.331 78.1138C111.331 96.0893 96.7625 110.661 78.7915 110.661C60.8204 110.661 46.2521 96.0893 46.2521 78.1138C46.2521 60.1384 60.8204 45.5664 78.7915 45.5664C96.7625 45.5664 111.331 60.1384 111.331 78.1138Z" fill="#FFB900"/>
<defs>
<clipPath id="clip0">
<rect width="26.0331" height="13.0182" rx="6" transform="matrix(0.865972 0.500093 -0.499907 0.866079 118.679 93.6323)" fill="white"/>
</clipPath>
<clipPath id="clip1">
<rect width="26.0331" height="13.0182" rx="6" transform="matrix(0.865972 0.500093 -0.499907 0.866079 22.8676 38.3018)" fill="white"/>
</clipPath>
<clipPath id="clip2">
<rect width="26.0363" height="13.0166" rx="6" transform="matrix(0.499907 0.866079 -0.865972 0.500093 105.578 111.502)" fill="white"/>
</clipPath>
<clipPath id="clip3">
<rect width="26.0363" height="13.0166" rx="6" transform="matrix(0.499907 0.866079 -0.865972 0.500093 50.2611 15.6667)" fill="white"/>
</clipPath>
<clipPath id="clip4">
<rect x="85.2993" y="120.426" width="26.0379" height="13.0157" rx="6" transform="rotate(90 85.2993 120.426)" fill="white"/>
</clipPath>
<clipPath id="clip5">
<rect x="85.2993" y="9.7644" width="26.0379" height="13.0157" rx="6" transform="rotate(90 85.2993 9.7644)" fill="white"/>
</clipPath>
<clipPath id="clip6">
<rect width="26.0363" height="13.0166" rx="6" transform="matrix(-0.499907 0.866079 -0.865972 -0.500093 63.2769 118.012)" fill="white"/>
</clipPath>
<clipPath id="clip7">
<rect width="26.0363" height="13.0166" rx="6" transform="matrix(-0.499907 0.866079 -0.865972 -0.500093 118.594 22.1763)" fill="white"/>
</clipPath>
<clipPath id="clip8">
<rect width="26.0331" height="13.0182" rx="6" transform="matrix(-0.865972 0.500093 -0.499907 -0.866079 45.4115 104.907)" fill="white"/>
</clipPath>
<clipPath id="clip9">
<rect width="26.0331" height="13.0182" rx="6" transform="matrix(-0.865972 0.500093 -0.499907 -0.866079 141.223 49.5767)" fill="white"/>
</clipPath>
</defs>
</svg>
