<svg width="157" height="157" viewBox="0 0 157 157" fill="none" xmlns="http://www.w3.org/2000/svg">
<path fill-rule="evenodd" clip-rule="evenodd" d="M110.053 68.5582C110.053 68.5582 110.653 71.6045 110.858 71.6336C121.904 73.2088 130.192 79.6518 130.192 91.1329C130.192 103.716 119.991 113.916 107.408 113.916H48.8219C36.2389 113.916 26.0383 103.716 26.0383 91.1329C26.0383 79.6518 34.5308 70.1542 45.5767 68.5791C45.7814 68.5499 45.9819 68.5437 46.1765 68.5582C49.1112 53.5983 62.295 42.3118 78.115 42.3118C93.935 42.3118 107.119 53.5983 110.053 68.5582Z" fill="#F3F3F3"/>
<path d="M107.408 113.916H108.748C120.591 113.916 130.192 104.566 130.192 93.0315C130.192 82.4698 122.142 73.7392 111.692 72.3421C110.239 55.5219 95.7608 42.3118 78.115 42.3118C62.5059 42.3118 49.3757 52.6483 45.5468 66.6767C34.4091 68.9245 26.0383 78.5342 26.0383 90.048C26.0383 102.666 36.0912 112.997 48.8219 113.858" stroke="#231815" stroke-width="2" stroke-linecap="round" stroke-linejoin="round"/>
<path fill-rule="evenodd" clip-rule="evenodd" d="M87.4434 122.255C85.8866 121.357 85.4747 119.156 86.5233 117.339L94.1178 104.186C95.1664 102.369 97.2784 101.626 98.8351 102.524C100.392 103.423 100.804 105.624 99.7552 107.44L92.1607 120.594C91.1121 122.41 89.0001 123.154 87.4434 122.255Z" fill="#00A4EF"/>
<path d="M84.5622 108.016C84.428 107.627 84.0953 107.345 83.6994 107.287L71.5881 105.492L77.1442 92.701C77.2926 92.3568 77.2631 91.9574 77.0635 91.6402C76.8649 91.3241 76.5235 91.1328 76.1582 91.1328H59.2445C58.6631 91.1328 58.1865 91.6075 58.1659 92.206L57.387 114.936C57.3674 115.504 57.7666 115.996 58.312 116.077L66.7322 117.327L55.4663 138.303C55.2023 138.796 55.3364 139.414 55.7793 139.745C55.9702 139.887 56.1904 139.954 56.4107 139.954C56.703 139.954 56.9932 139.831 57.2048 139.594L84.3407 109.142C84.6112 108.838 84.6962 108.405 84.5622 108.016Z" fill="#FFB900"/>
</svg>
