<svg width="157" height="157" viewBox="0 0 157 157" fill="none" xmlns="http://www.w3.org/2000/svg">
<path fill-rule="evenodd" clip-rule="evenodd" d="M110.025 68.5582C110.025 68.5582 110.624 71.6045 110.829 71.6336C121.872 73.2088 130.157 79.6518 130.157 91.1329C130.157 103.716 119.96 113.916 107.38 113.916H48.809C36.2294 113.916 26.0315 103.716 26.0315 91.1329C26.0315 79.6518 34.5218 70.1542 45.5648 68.5791C45.7694 68.5499 45.9699 68.5437 46.1644 68.5582C49.0983 53.5983 62.2786 42.3118 78.0945 42.3118C93.9103 42.3118 107.091 53.5983 110.025 68.5582Z" fill="#F3F3F3"/>
<path d="M107.38 113.916H108.72C120.559 113.916 130.157 104.566 130.157 93.0315C130.157 82.4698 122.11 73.7392 111.662 72.3421C110.21 55.5219 95.7357 42.3118 78.0945 42.3118C62.4895 42.3118 49.3627 52.6483 45.5349 66.6767C34.4 68.9245 26.0315 78.5342 26.0315 90.048C26.0315 102.666 36.0817 112.997 48.8091 113.858" stroke="#231815" stroke-width="2" stroke-linecap="round" stroke-linejoin="round"/>
<path d="M55.317 97.6423H91.7511C93.3836 97.6423 94.9081 98.4583 95.8135 99.8168V99.8168C96.9064 101.456 96.9064 103.592 95.8135 105.232V105.232C94.9081 106.591 93.3836 107.407 91.7511 107.407H67.692C66.0595 107.407 64.535 108.223 63.6295 109.581V109.581C62.5367 111.221 62.5367 113.357 63.6295 114.996V114.996C64.535 116.355 66.0595 117.171 67.692 117.171H85.2432C86.8757 117.171 88.4003 117.987 89.3057 119.345V119.345C90.3985 120.985 90.3985 123.121 89.3057 124.761V124.761C88.4003 126.119 86.8757 126.935 85.2432 126.935H74.1999C72.5673 126.935 71.0428 127.751 70.1374 129.109V129.109C69.0446 130.749 69.0446 132.885 70.1374 134.525V134.525C71.0428 135.883 72.5673 136.699 74.1999 136.699H81.3485" stroke="#231815" stroke-width="2" stroke-linecap="round" stroke-linejoin="round"/>
</svg>
