<svg width="157" height="157" viewBox="0 0 157 157" fill="none" xmlns="http://www.w3.org/2000/svg">
<path fill-rule="evenodd" clip-rule="evenodd" d="M110.025 68.5582C110.025 68.5582 110.624 71.6045 110.829 71.6336C121.872 73.2088 130.157 79.6518 130.157 91.1329C130.157 103.716 119.96 113.916 107.38 113.916H48.809C36.2293 113.916 26.0315 103.716 26.0315 91.1329C26.0315 79.6518 34.5218 70.1542 45.5648 68.5791C45.7694 68.5499 45.9698 68.5437 46.1644 68.5582C49.0982 53.5983 62.2786 42.3118 78.0945 42.3118C93.9103 42.3118 107.091 53.5983 110.025 68.5582Z" fill="#F3F3F3"/>
<path d="M107.38 113.916H108.72C120.559 113.916 130.157 104.566 130.157 93.0315C130.157 82.4698 122.11 73.7392 111.662 72.3421C110.21 55.5219 95.7357 42.3118 78.0945 42.3118C62.4895 42.3118 49.3627 52.6483 45.5349 66.6767C34.4 68.9245 26.0315 78.5342 26.0315 90.048C26.0315 102.666 36.0817 112.997 48.809 113.858" stroke="#231815" stroke-width="2" stroke-linecap="round" stroke-linejoin="round"/>
<path fill-rule="evenodd" clip-rule="evenodd" d="M68.3325 94.3875C68.3325 88.9949 72.7031 84.6233 78.0943 84.6233C83.4856 84.6233 87.8562 88.9949 87.8562 94.3875V96.0149C87.8562 102.306 82.7572 107.406 76.4674 107.406H55.3168C53.5197 107.406 52.0629 105.949 52.0629 104.152C52.0629 102.354 53.5197 100.897 55.3168 100.897H76.4674C79.163 100.897 81.3483 98.7112 81.3483 96.0149V94.3875C81.3483 92.59 79.8914 91.1328 78.0943 91.1328C76.2973 91.1328 74.8404 92.59 74.8404 94.3875V95.2752C74.8404 97.0727 73.3836 98.5299 71.5865 98.5299C69.7894 98.5299 68.3325 97.0727 68.3325 95.2752V94.3875ZM81.3483 135.072C81.3483 141.363 86.4472 146.463 92.7371 146.463C99.0269 146.463 104.126 141.363 104.126 135.072V133.444C104.126 126.254 98.2985 120.425 91.1101 120.425H58.5707C56.7736 120.425 55.3168 121.883 55.3168 123.68C55.3168 125.478 56.7736 126.935 58.5707 126.935H91.1101C94.7043 126.935 97.618 129.849 97.618 133.444V135.072C97.618 137.768 95.4327 139.954 92.7371 139.954C90.0414 139.954 87.8562 137.768 87.8562 135.072V133.444C87.8562 131.647 86.3993 130.19 84.6022 130.19C82.8051 130.19 81.3483 131.647 81.3483 133.444V135.072ZM61.8247 110.661C60.0276 110.661 58.5707 112.118 58.5707 113.916C58.5707 115.714 60.0276 117.171 61.8247 117.171H94.364C96.1611 117.171 97.618 115.714 97.618 113.916C97.618 112.118 96.1611 110.661 94.364 110.661H61.8247Z" fill="#231815"/>
</svg>
